<?xml version="1.0" encoding="utf-8"?>
<!-- Generator: Adobe Illustrator 25.4.1, SVG Export Plug-In . SVG Version: 6.00 Build 0)  -->
<svg version="1.1" id="Calque_1" xmlns="http://www.w3.org/2000/svg" xmlns:xlink="http://www.w3.org/1999/xlink" x="0px" y="0px"
	 viewBox="0 0 24 24" style="enable-background:new 0 0 24 24;" xml:space="preserve">
<style type="text/css">
	.st0{clip-path:url(#SVGID_00000155867952303639675020000013234967210702513308_);}
	.st1{fill:#9FD8F7;}
	.st2{fill:#010203;}
	.st3{fill:#010202;}
	.st4{fill:#D8C7B9;}
	.st5{fill:#B5977C;}
</style>
<g>
	<defs>
		<path id="SVGID_1_" d="M20,24H4c-2.2,0-4-1.8-4-4V4c0-2.2,1.8-4,4-4h16c2.2,0,4,1.8,4,4v16C24,22.2,22.2,24,20,24z"/>
	</defs>
	<clipPath id="SVGID_00000181085424615345533040000003456585250731784877_">
		<use xlink:href="#SVGID_1_"  style="overflow:visible;"/>
	</clipPath>
	<g style="clip-path:url(#SVGID_00000181085424615345533040000003456585250731784877_);">
		<g>
			<circle class="st1" cx="12" cy="12" r="9.3"/>
		</g>
		<g>
			<path class="st2" d="M12,22.2c-0.3,0-0.5,0-0.8,0c-2.7-0.2-5.2-1.5-7-3.5c-1.8-2.1-2.6-4.7-2.4-7.4c0.2-2.7,1.5-5.2,3.5-7
				c2.1-1.8,4.7-2.6,7.4-2.4c2.7,0.2,5.2,1.5,7,3.5c1.8,2.1,2.6,4.7,2.4,7.4c-0.2,2.7-1.5,5.2-3.5,7C16.8,21.3,14.4,22.2,12,22.2z
				 M12,3.6c-2,0-3.9,0.7-5.5,2c-1.7,1.5-2.7,3.5-2.9,5.8c-0.4,4.6,3.1,8.7,7.8,9.1c2.2,0.2,4.4-0.5,6.1-2c1.7-1.5,2.7-3.5,2.9-5.8
				c0.2-2.2-0.5-4.4-2-6.1c-1.5-1.7-3.5-2.7-5.8-2.9C12.4,3.6,12.2,3.6,12,3.6z"/>
		</g>
		<g>
			<circle class="st3" cx="12" cy="12" r="4.1"/>
		</g>
		<g>
			<polygon class="st4" points="25.3,7.1 -2.4,15.5 -2.4,-1.9 25.3,-1.9 			"/>
		</g>
		<g>
			<path class="st2" d="M-12.2,30.9l-1.1-5.9c0.3-0.1,27-5.1,62-9.2l0.7,6C14.6,25.9-11.9,30.9-12.2,30.9z"/>
		</g>
		<g>
			<path class="st2" d="M-3.4,6.2v-1l-0.3-0.9c0.1,0,0.4-0.2,0.8-0.4c2-1,7.3-3.6,15.2-6.7l0.7,1.9c-7.8,3.1-13,5.7-15,6.7
				C-3.2,6.2-3.2,6.2-3.4,6.2z"/>
		</g>
		<g>
			<path class="st5" d="M-3.6,13c0,0,26.6-9.8,40.4-12.1S26.6,6.8,26.6,6.8L4.3,12.7l-5.7,2"/>
		</g>
		<path class="st2" d="M38.5,5.4l-0.5-1.9C31,5.2,25,6.6,19.9,7.9c-0.2-0.7-0.4-1.3-0.8-2.1c-0.4-0.9-0.8-1.8-1.3-2.7
			C17.8,3,17.6,2.9,17.4,3c-0.2,0.1-0.3,0.3-0.2,0.5c0.3,0.9,0.5,1.8,0.7,2.7C18,7,18.1,7.7,18.1,8.4C17,8.7,15.8,9,14.8,9.3
			c0-0.1,0-0.3-0.1-0.4c-0.2-1-0.5-2.1-0.9-3.1c-0.1-0.2-0.3-0.3-0.5-0.3c-0.2,0.1-0.4,0.3-0.3,0.5c0.1,1,0.2,2,0.2,3
			c0,0.2,0,0.4,0,0.7C-3.7,14.2-7.4,16-7.6,16.1l0.9,1.8c0,0,3.6-1.7,19.7-6c0,0.1,0,0.2,0,0.2c0,0,0,0,0,0c0,0.1,0,0.1,0,0.2
			c0,0.3,0.2,0.6,0.4,0.7c0.2,0.2,0.4,0.2,0.7,0.2c0,0,0.1,0,0.1,0c0.3,0,0.6-0.2,0.7-0.4c0.2-0.2,0.3-0.5,0.2-0.8
			c0-0.3-0.1-0.5-0.1-0.8C21.2,9.7,28.8,7.7,38.5,5.4z"/>
	</g>
</g>
</svg>
